<svg xmlns="http://www.w3.org/2000/svg" viewBox="0 0 448 512"><!--!Font Awesome Free 6.5.1 by @fontawesome - https://fontawesome.com License - https://fontawesome.com/license/free Copyright 2024 Fonticons, Inc.--><path d="M439.2 453.1L297.2 384l142-69.1c7.9-4 11.1-13.6 7.2-21.5L432 264.9c-4-7.9-13.6-11.1-21.5-7.2L224 348.4 37.5 257.7c-7.9-4-17.5-.8-21.5 7.2L1.7 293.5c-4 7.9-.8 17.5 7.2 21.5L150.8 384 8.9 453.1c-7.9 4-11.1 13.6-7.2 21.5l14.3 28.6c4 7.9 13.6 11.1 21.5 7.2L224 419.6l186.5 90.7c7.9 4 17.5 .8 21.5-7.2l14.3-28.6c4-7.9 .7-17.5-7.2-21.5zM150 237.3l-5.5 25.9c-2.7 12.6 5.4 24.9 16.5 24.9h126.1c11 0 19.1-12.2 16.5-24.9l-5.5-25.9c41.8-22.4 70-62.8 70-109.3C368 57.3 303.5 0 224 0S80 57.3 80 128c0 46.5 28.2 86.9 70 109.3zM280 112c17.7 0 32 14.4 32 32s-14.4 32-32 32-32-14.4-32-32 14.4-32 32-32zm-112 0c17.7 0 32 14.4 32 32s-14.4 32-32 32-32-14.4-32-32 14.4-32 32-32z"/></svg>